name D:\school\WTK\thesis\model\3dpredictsim\Results\test_WL_v2\Fal_s1_bCst_PF_Natali2010_ls135_k_nonl1000_kmtp_ig24_v4.mot
datacolumns 128
datarows 4
range 0.00000000 0.03376233
endheader
time	pelvis_tilt	pelvis_list	pelvis_rotation	pelvis_tx	pelvis_ty	pelvis_tz	hip_flexion_l	hip_adduction_l	hip_rotation_l	hip_flexion_r	hip_adduction_r	hip_rotation_r	knee_angle_l	knee_angle_r	ankle_angle_l	ankle_angle_r	subtalar_angle_l	subtalar_angle_r	tmt_angle_l	tmt_angle_r	mtp_angle_l	mtp_angle_r	lumbar_extension	lumbar_bending	lumbar_rotation	arm_flex_l	arm_add_l	arm_rot_l	arm_flex_r	arm_add_r	arm_rot_r	elbow_flex_l	elbow_flex_r	pro_sup_l	pro_sup_r	glut_med1_l/activation	glut_med2_l/activation	glut_med3_l/activation	glut_min1_l/activation	glut_min2_l/activation	glut_min3_l/activation	semimem_l/activation	semiten_l/activation	bifemlh_l/activation	bifemsh_l/activation	sar_l/activation	add_long_l/activation	add_brev_l/activation	add_mag1_l/activation	add_mag2_l/activation	add_mag3_l/activation	tfl_l/activation	pect_l/activation	grac_l/activation	glut_max1_l/activation	glut_max2_l/activation	glut_max3_l/activation	iliacus_l/activation	psoas_l/activation	quad_fem_l/activation	gem_l/activation	peri_l/activation	rect_fem_l/activation	vas_med_l/activation	vas_int_l/activation	vas_lat_l/activation	med_gas_l/activation	lat_gas_l/activation	soleus_l/activation	tib_post_l/activation	flex_dig_l/activation	flex_hal_l/activation	tib_ant_l/activation	per_brev_l/activation	per_long_l/activation	per_tert_l/activation	ext_dig_l/activation	ext_hal_l/activation	ercspn_l/activation	intobl_l/activation	extobl_l/activation	glut_med1_r/activation	glut_med2_r/activation	glut_med3_r/activation	glut_min1_r/activation	glut_min2_r/activation	glut_min3_r/activation	semimem_r/activation	semiten_r/activation	bifemlh_r/activation	bifemsh_r/activation	sar_r/activation	add_long_r/activation	add_brev_r/activation	add_mag1_r/activation	add_mag2_r/activation	add_mag3_r/activation	tfl_r/activation	pect_r/activation	grac_r/activation	glut_max1_r/activation	glut_max2_r/activation	glut_max3_r/activation	iliacus_r/activation	psoas_r/activation	quad_fem_r/activation	gem_r/activation	peri_r/activation	rect_fem_r/activation	vas_med_r/activation	vas_int_r/activation	vas_lat_r/activation	med_gas_r/activation	lat_gas_r/activation	soleus_r/activation	tib_post_r/activation	flex_dig_r/activation	flex_hal_r/activation	tib_ant_r/activation	per_brev_r/activation	per_long_r/activation	per_tert_r/activation	ext_dig_r/activation	ext_hal_r/activation	ercspn_r/activation	intobl_r/activation	extobl_r/activation	
          0.00000000	         -2.92956855	         -1.94182161	          5.32281295	          0.00000000	          0.91867455	         -0.00256988	        -17.31623931	         -0.73104398	          6.01524329	         29.14389371	          3.26123722	         -2.48715164	         -7.10864155	        -11.15912794	          0.48921779	          7.10302648	          6.40674108	         -5.12898162	         -0.66906642	         -2.16685323	         22.91506240	         -0.07138061	         -1.62494775	          0.06340350	         -2.01402997	          5.34271274	        -13.45343552	         16.82911447	         -5.43596754	        -13.45123616	          7.80584566	         32.15320085	         15.99496731	         86.51662706	         86.51662706	          0.28403388	          0.08830765	          0.06950469	          0.27208914	          0.17267917	          0.09944749	          0.05000454	          0.05000067	          0.05000055	          0.05000867	          0.09778092	          0.09078849	          0.08004647	          0.05003270	          0.05002338	          0.05001639	          0.27579845	          0.06542767	          0.05000411	          0.05000245	          0.05000154	          0.05000230	          0.38694077	          0.58108628	          0.05000028	          0.05000239	          0.05937839	          0.22587766	          0.05000593	          0.10907150	          0.12749009	          0.26081655	          0.35407270	          0.28530685	          0.28377404	          0.24824893	          0.32941151	          0.05000007	          0.05000115	          0.11486045	          0.05000037	          0.05000010	          0.05000038	          0.05000006	          0.07055594	          0.05000070	          0.08284991	          0.05937679	          0.05000030	          0.05938204	          0.05937867	          0.05000216	          0.20734865	          0.05000069	          0.07596234	          0.05000057	          0.05000077	          0.11808763	          0.21703132	          0.22355365	          0.15813608	          0.09955891	          0.05000050	          0.05013472	          0.08087706	          0.05000575	          0.05647461	          0.11761497	          0.06532341	          0.05985047	          0.51323719	          0.16663139	          0.13765829	          0.08286440	          0.17498727	          0.17266464	          0.15227833	          0.05000002	          0.05000004	          0.05000000	          0.05000010	          0.05000142	          0.05000085	          0.53360839	          0.27287865	          0.18001387	          0.19682633	          0.49002989	          0.14838253	          0.05373986	          0.11680937	          0.10272373	
          0.01125411	         -2.92561113	         -2.03327268	          5.62273948	          0.01705342	          0.91780089	         -0.00240452	        -17.27290925	         -1.03658518	          5.77651311	         28.51997358	          3.53242325	         -2.22525401	         -8.87035366	        -11.69404202	         -0.13814338	          6.42746359	          7.21385352	         -5.46007480	         -1.24839188	         -2.30980103	         24.12299097	         -0.10951903	         -1.41190615	          0.26471863	         -2.06782383	          5.06851775	        -13.45522636	         17.13652400	         -6.37677951	        -13.45015858	          7.62931068	         33.31963698	         15.69092933	         86.51662706	         86.51662706	          0.33598759	          0.07436009	          0.05852698	          0.22911480	          0.14540576	          0.08374050	          0.05000558	          0.05000294	          0.05000248	          0.05000025	          0.08233747	          0.12568841	          0.10481114	          0.05938207	          0.05938098	          0.05938316	          0.23223827	          0.05942583	          0.05004300	          0.05007466	          0.05014356	          0.05937490	          0.32582630	          0.57156281	          0.05242358	          0.05000229	          0.05000024	          0.19020185	          0.15788731	          0.12336155	          0.11123153	          0.21962233	          0.29814932	          0.24024456	          0.23958608	          0.20904016	          0.27738365	          0.05000003	          0.05000154	          0.14364375	          0.05000015	          0.05000003	          0.05000020	          0.05000010	          0.05941212	          0.05937849	          0.20370175	          0.05000014	          0.16756175	          0.05000312	          0.05000037	          0.05000041	          0.18852375	          0.07623927	          0.08227023	          0.05000029	          0.05000954	          0.09943675	          0.18280591	          0.18824560	          0.13316050	          0.11705576	          0.05000079	          0.05945013	          0.09602004	          0.05000060	          0.05000315	          0.09903940	          0.05937817	          0.05400350	          0.43217490	          0.14031320	          0.12625411	          0.06977654	          0.14734928	          0.14539349	          0.12822705	          0.05782081	          0.06794987	          0.05576913	          0.05068811	          0.05000221	          0.05000352	          0.44932861	          0.25967993	          0.16665674	          0.16573899	          0.55205361	          0.12494655	          0.05000002	          0.11978771	          0.08649922	
          0.02250822	         -2.91948762	         -2.12595027	          5.89033226	          0.03430887	          0.91699900	         -0.00223268	        -17.16271643	         -1.34268877	          5.53079879	         27.78493616	          3.75761973	         -1.95725380	        -10.72786444	        -12.24087240	         -0.92002671	          5.82066782	          7.97886328	         -5.80707216	         -1.85794508	         -2.25181999	         25.16338243	         -0.14643993	         -1.18935934	          0.47632883	         -2.11318619	          4.73407491	        -13.45918099	         17.39130673	         -7.32754620	        -13.45252462	          7.49440923	         34.45617594	         15.44066128	         86.51662706	         86.51662706	          0.29098522	          0.06261547	          0.05000013	          0.36978739	          0.12244003	          0.07051437	          0.05000375	          0.05000031	          0.05000025	          0.05000069	          0.06935266	          0.13014337	          0.08825717	          0.05000342	          0.05000331	          0.05000448	          0.19781414	          0.05011790	          0.05000091	          0.05000209	          0.05000120	          0.05000094	          0.27690121	          0.54515358	          0.05000015	          0.05000096	          0.05000066	          0.16605463	          0.13295296	          0.10387876	          0.16359210	          0.18493445	          0.25105865	          0.20229954	          0.20174537	          0.17602390	          0.23357295	          0.05000017	          0.08723390	          0.13760310	          0.05000071	          0.05157620	          0.05000062	          0.05866479	          0.05002838	          0.05000010	          0.27234952	          0.23756787	          0.28788805	          0.17153303	          0.19864721	          0.16551644	          0.15874772	          0.06419815	          0.06927627	          0.07159746	          0.05000333	          0.08373146	          0.15393303	          0.15851383	          0.11212937	          0.13302749	          0.05000133	          0.05006111	          0.08085583	          0.17852121	          0.13774874	          0.11490074	          0.05000026	          0.05000025	          0.36391588	          0.11815192	          0.10631763	          0.05875593	          0.12407730	          0.12243197	          0.10797558	          0.05000773	          0.05937634	          0.05000034	          0.05000020	          0.05000094	          0.05000122	          0.57833518	          0.33876919	          0.19582821	          0.40243325	          0.52787477	          0.25278600	          0.06643871	          0.11443197	          0.07283726	
          0.03376233	         -2.91173354	         -2.20952776	          6.12148462	          0.05157018	          0.91630250	         -0.00202600	        -16.95873752	         -1.63763215	          5.29352826	         27.04722508	          3.98252921	         -1.69814300	        -12.70349684	        -12.79917385	         -1.83886320	          5.26942700	          8.70517544	         -6.15034229	         -2.49253556	         -2.28305736	         25.93430646	         -0.19705393	         -0.97634469	          0.68707016	         -2.15163098	          4.37448760	        -13.47016280	         17.61650885	         -8.24428937	        -13.45331580	          7.40257790	         35.53804106	         15.21920030	         86.51662706	         86.51662706	          0.30953670	          0.05272586	          0.05000015	          0.31138360	          0.10310157	          0.05937725	          0.05000418	          0.05000041	          0.05000034	          0.05000025	          0.05839992	          0.16597075	          0.11527949	          0.05002564	          0.05002847	          0.05088219	          0.16660272	          0.05939225	          0.05000141	          0.05000489	          0.05000288	          0.05000240	          0.23316666	          0.51195423	          0.05000028	          0.05000087	          0.05000024	          0.13982746	          0.14025483	          0.14025480	          0.13775508	          0.15572530	          0.21140563	          0.17034768	          0.16988124	          0.14822231	          0.19668183	          0.07609041	          0.10850683	          0.13865261	          0.05000827	          0.12322089	          0.05002549	          0.07677763	          0.05000002	          0.05000007	          0.35148973	          0.32293982	          0.36730232	          0.16009374	          0.16735650	          0.19648539	          0.13367464	          0.07934517	          0.06855413	          0.06028938	          0.05000076	          0.07050682	          0.12962088	          0.13349756	          0.16515632	          0.16183466	          0.05000052	          0.05000715	          0.08784726	          0.23518068	          0.18453471	          0.16225983	          0.05000018	          0.05000018	          0.30643793	          0.09949085	          0.13872368	          0.05000010	          0.15306492	          0.16427746	          0.13593389	          0.05000004	          0.05000009	          0.05000001	          0.05000004	          0.05000020	          0.05000021	          0.62009256	          0.29922692	          0.16644317	          0.53489692	          0.60333026	          0.27935309	          0.08334502	          0.09635840	          0.06133311	
